<?xml version="1.0" ?><svg data-name="Layer 1" id="Layer_1" viewBox="0 0 100 100" xmlns="http://www.w3.org/2000/svg"><defs><style>.cls-1,.cls-2{fill:none;stroke:#000;}.cls-1{stroke-linecap:round;stroke-linejoin:round;}.cls-2{stroke-miterlimit:10;}</style></defs><title/><path class="cls-1" d="M54.53,44.91c-.42.91-.86,1.8-1.34,2.67"/><path class="cls-1" d="M55.53,42.63c.08-.18.28-.7.51-1.31a17.17,17.17,0,0,0,1-5,3.87,3.87,0,0,1,.21-1.15,4.36,4.36,0,0,1,4.32-2.92l5.82.33c.55,0,1.49-.15,2.69-.26"/><path class="cls-1" d="M48.06,55.23c-.39.5-.81,1-1.22,1.45h0"/><path class="cls-1" d="M39.36,63.51l-.81.56"/><path class="cls-1" d="M34,94.49h.05a68.68,68.68,0,0,0,25.75-1.42V89.16s2.75.58,5.78,1.19c3.52.73,7.39,1.49,7.65,1.42"/><path class="cls-1" d="M77.82,37.73l.38-1a2.09,2.09,0,0,1,2-1.44A4.42,4.42,0,0,1,84,37.64"/><path class="cls-1" d="M78.33,38.25l0,0,2.14,1.78a1.84,1.84,0,0,0,2.94-.87L84,37.72a.2.2,0,0,1,0-.08,2.06,2.06,0,0,1,1.92-1.36c2.39,0,5.91,2,6,4.59l.23,11.89q.11,3.23.47,6.42a106.06,106.06,0,0,1,.61,12.09v1.25l1.67,9.79a6.38,6.38,0,0,1-3.82,7.06,103.07,103.07,0,0,1-12,3.43c-.21.06-2.88-.44-5.79-1-3.64-.74-7.65-1.58-7.65-1.58v.16"/><path class="cls-1" d="M34.09,94.5H34A70.27,70.27,0,0,1,17,88.26l-1-.51a6.14,6.14,0,0,1-3-6.9l.4-1.63a11.46,11.46,0,0,1,.39-1.3,10.18,10.18,0,0,1,6.89-6.36L22.82,71l1.51-.39a43.32,43.32,0,0,0,10-3.93"/><path class="cls-1" d="M44.31,59.33c-.53.51-1.06,1-1.61,1.48"/><path class="cls-1" d="M50,52.66h0c.59-.82,1.16-1.67,1.7-2.55"/><path class="cls-1" d="M22.82,71s0,0,0,.13a3.43,3.43,0,0,0,2.34,3.49l9.62,2.94a44.25,44.25,0,0,1,11.83,5.66l7.11,4.81a6.24,6.24,0,0,0,5.51.75L76,83.1A2.77,2.77,0,0,1,79.5,85l.28.91a1.76,1.76,0,0,0,1.57,1.26,7.27,7.27,0,0,0,2.23-.08c.26-.14,1.67-1.4,2.9-2.53a7,7,0,0,1,4.65-1.84H95"/><path class="cls-1" d="M78.37,38.29l0,0L73,32.82a2.47,2.47,0,0,0-3.6.06,3.36,3.36,0,0,0-.41.56l-3.49,9.35c-.08.16-.18.33-.27.48"/><path class="cls-1" d="M60.93,50.06c-.8,1.16-1.64,2.29-2.53,3.39"/><path class="cls-1" d="M53.29,59.19c-1,1-2,1.92-3,2.82"/><path class="cls-1" d="M32,67.87l.67-.08a10.24,10.24,0,0,1,4.93.6l1.81.7a2.46,2.46,0,0,0,2.34-.33L44.1,67"/><path class="cls-1" d="M48.61,63.5c-.86.73-1.74,1.43-2.65,2.11"/><path class="cls-1" d="M64.18,45.05c-.65,1.13-1.35,2.23-2.07,3.31"/><path class="cls-1" d="M93.24,72.53h0a12.3,12.3,0,0,1-8.71,4.71l-3.46.25A31.3,31.3,0,0,0,70,80.43L58.88,85.67a9.08,9.08,0,0,1-6,.63l-2.69-.64-9.39.23a87.33,87.33,0,0,1-12.93-.66l-4.8-.6a3.62,3.62,0,0,1-2.77-1.5l-.46-.61a13,13,0,0,0-4.45-3.8l-1.56-.8"/><path class="cls-2" d="M69.55,46.39a1,1,0,0,1-.89.62.84.84,0,0,1-.38-.08l-.53-.25-3.41-1.56a1.11,1.11,0,0,0-.16-.07,12.07,12.07,0,0,0-2.2-.73,11.38,11.38,0,0,0-6.76.59.83.83,0,0,1-.69,0,1,1,0,0,1-.55-.59A1.05,1.05,0,0,1,54.54,43c.33-.14.66-.26,1-.37a13.07,13.07,0,0,1,6.65-.35,13.64,13.64,0,0,1,2.92.95l.1,0v0l3.27,1.49L69,45A1.07,1.07,0,0,1,69.55,46.39Z"/><path class="cls-2" d="M66.57,51.53a1,1,0,0,1-.88.62.73.73,0,0,1-.38-.09l-4-1.81-.44-.18a3.83,3.83,0,0,0-.43-.17,11.33,11.33,0,0,0-8.24.15A.94.94,0,0,1,51,49.46a1.07,1.07,0,0,1,.55-1.34,16.36,16.36,0,0,1,1.63-.54,13,13,0,0,1,8,.39,8.47,8.47,0,0,1,.94.39h0L65.73,50l.34.16A1.06,1.06,0,0,1,66.57,51.53Z"/><path class="cls-2" d="M62.15,57.32a.85.85,0,0,1-.38-.09l-3.94-1.81a11.35,11.35,0,0,0-9.12-.2.94.94,0,0,1-1.24-.59A1,1,0,0,1,48,53.3a13.12,13.12,0,0,1,10.56.23l3.94,1.81A1.05,1.05,0,0,1,63,56.69,1,1,0,0,1,62.15,57.32Z"/><path class="cls-2" d="M58.47,61.44a.85.85,0,0,1-.38-.09l-3.94-1.81a11.33,11.33,0,0,0-9.11-.2.94.94,0,0,1-1.25-.59,1.05,1.05,0,0,1,.56-1.33,13.12,13.12,0,0,1,10.56.23l3.94,1.81a1.05,1.05,0,0,1,.51,1.35A1,1,0,0,1,58.47,61.44Z"/><path class="cls-2" d="M53.66,65.7a.85.85,0,0,1-.38-.09l-4-1.81a11.33,11.33,0,0,0-9.11-.2A.93.93,0,0,1,39,63a1.07,1.07,0,0,1,.55-1.34,13.16,13.16,0,0,1,10.56.23L54,63.72a1.05,1.05,0,0,1,.5,1.35A1,1,0,0,1,53.66,65.7Z"/><path class="cls-2" d="M48.75,69a1.08,1.08,0,0,1-.38-.08l-3.94-1.81a11.33,11.33,0,0,0-9.11-.2,1,1,0,0,1-1.25-.6A1.05,1.05,0,0,1,34.63,65a13.12,13.12,0,0,1,10.56.23l3.94,1.81a1.07,1.07,0,0,1,.51,1.36A1,1,0,0,1,48.75,69Z"/><path class="cls-2" d="M68.47,44.77a1.44,1.44,0,0,1,.84-.26,1.74,1.74,0,0,1,0,3.47,1.63,1.63,0,0,1-1.56-1.3"/><path class="cls-2" d="M48.45,66.76a1.31,1.31,0,0,1,.62-.14,1.74,1.74,0,0,1,0,3.47,1.64,1.64,0,0,1-1.6-1.55"/><path class="cls-2" d="M53.69,63.56l.23,0a1.73,1.73,0,1,1-1.62,1.73.34.34,0,0,1,0-.1"/><path class="cls-2" d="M58.25,59.18a1.44,1.44,0,0,1,.54-.1,1.74,1.74,0,1,1-1.61,1.86"/><path class="cls-2" d="M62.07,55.13a1.39,1.39,0,0,1,.35,0,1.73,1.73,0,1,1-1.62,1.73v0"/><path class="cls-2" d="M65.73,50a2,2,0,0,1,.34,0,1.74,1.74,0,0,1,0,3.47,1.7,1.7,0,0,1-1.63-1.74v0"/><path class="cls-1" d="M69,33.44l3.53,4.24a27,27,0,0,1,5.28,14.84h0c0,10.1-5.75,19.19-14.52,22.93h0a43.38,43.38,0,0,1-25.48,2.72l-3-.59"/><path class="cls-1" d="M41.53,34.32c-.37.8-.77,1.59-1.19,2.36"/><path class="cls-1" d="M42.42,32.28c.08-.16.25-.62.46-1.16a15.44,15.44,0,0,0,.89-4.42,3.86,3.86,0,0,1,.19-1,3.9,3.9,0,0,1,3.85-2.6l5.17.3a23,23,0,0,0,2.4-.24"/><path class="cls-1" d="M35.78,43.5c-.35.44-.72.86-1.09,1.28h0"/><path class="cls-1" d="M28,50.86l-.72.5"/><path class="cls-1" d="M39.43,78.46c-.53.07-1.06.14-1.59.18"/><path class="cls-1" d="M62.26,27.93l.33-.93a1.87,1.87,0,0,1,1.74-1.29,3.93,3.93,0,0,1,3.44,2.13"/><line class="cls-1" x1="75.03" x2="75.03" y1="41.8" y2="41.79"/><path class="cls-1" d="M74.89,34.77h0l-.08-4c-.07-2.29-3.2-4.09-5.33-4.09a1.83,1.83,0,0,0-1.71,1.21s0,0,0,.08l-.47,1.31a1.64,1.64,0,0,1-2.62.78l-1.9-1.59,0,0"/><path class="cls-1" d="M23.52,53.7c-.67.36-1.36.72-2.05,1a37.59,37.59,0,0,1-6.81,2.45l-1.34.35h0L11.42,58A9,9,0,0,0,5.3,63.69a11,11,0,0,0-.36,1.15l-.35,1.45a5.46,5.46,0,0,0,2.64,6.14l.87.45a62,62,0,0,0,6.73,3"/><path class="cls-1" d="M32.44,47.14c-.47.46-.94.9-1.43,1.32"/><path class="cls-1" d="M37.52,41.21h0c.52-.73,1-1.49,1.51-2.27"/><path class="cls-1" d="M33.41,67.73h0l-.49-.31a39,39,0,0,0-9-4l-8.56-2.62a3,3,0,0,1-2.08-3.11c0-.06,0-.11,0-.11"/><path class="cls-1" d="M62.75,28.42l0,0-4.78-4.82a2.18,2.18,0,0,0-3.2.05,3.2,3.2,0,0,0-.36.5l-3.1,8.31-.24.44"/><path class="cls-1" d="M47.23,38.9c-.71,1-1.47,2-2.26,3"/><path class="cls-1" d="M40.43,47c-.86.87-1.74,1.71-2.64,2.51"/><path class="cls-1" d="M21.47,54.74l.6-.07a9.12,9.12,0,0,1,4.39.53l1.61.62a2.17,2.17,0,0,0,2.08-.29L32.25,54"/><path class="cls-1" d="M36.27,50.85c-.77.65-1.55,1.28-2.36,1.88"/><path class="cls-1" d="M43.77,43.38c-.64.76-1.31,1.51-2,2.23"/><path class="cls-1" d="M50.12,34.44c-.58,1-1.2,2-1.84,2.94"/><path class="cls-1" d="M5.3,63.69l1.39.7a11.56,11.56,0,0,1,4,3.38l.4.55a3.27,3.27,0,0,0,2.47,1.33l4.28.54q3.09.39,6.21.52"/><polyline class="cls-1" points="47.81 69.44 48.68 69.03 49.52 68.63"/><path class="cls-2" d="M54.1,36.18a.83.83,0,0,1-.34-.07l-3.5-1.61a10,10,0,0,0-8.11-.18A.85.85,0,0,1,41,33.79a.94.94,0,0,1,.5-1.19,11.67,11.67,0,0,1,9.39.21l3.51,1.61a.94.94,0,0,1,.45,1.21A.87.87,0,0,1,54.1,36.18Z"/><path class="cls-2" d="M51.46,40.75a.8.8,0,0,1-.34-.07l-3.51-1.62a10.09,10.09,0,0,0-8.11-.17.84.84,0,0,1-1.1-.53.94.94,0,0,1,.49-1.19,11.7,11.7,0,0,1,9.4.21L51.8,39a1,1,0,0,1,.45,1.21A.87.87,0,0,1,51.46,40.75Z"/><path class="cls-2" d="M48.31,45.35a.83.83,0,0,1-.34-.07l-3.51-1.62a10.06,10.06,0,0,0-8.1-.17A.85.85,0,0,1,35.25,43a.94.94,0,0,1,.49-1.19,11.69,11.69,0,0,1,9.4.21l3.51,1.61a1,1,0,0,1,.45,1.21A.87.87,0,0,1,48.31,45.35Z"/><path class="cls-2" d="M45,49a.81.81,0,0,1-.34-.08l-3.51-1.61a10.13,10.13,0,0,0-8.11-.18.82.82,0,0,1-1.1-.53.93.93,0,0,1,.49-1.18,11.7,11.7,0,0,1,9.4.2l3.51,1.62a1,1,0,0,1,.45,1.2A.86.86,0,0,1,45,49Z"/><path class="cls-2" d="M40.75,52.81a.8.8,0,0,1-.33-.08l-3.51-1.61a10.09,10.09,0,0,0-8.11-.18.84.84,0,0,1-1.11-.53.93.93,0,0,1,.5-1.18,11.67,11.67,0,0,1,9.39.2L41.09,51a.94.94,0,0,1,.45,1.21A.85.85,0,0,1,40.75,52.81Z"/><path class="cls-2" d="M36.39,55.78a.83.83,0,0,1-.34-.07L32.54,54.1a10,10,0,0,0-8.1-.18.85.85,0,0,1-1.11-.53.94.94,0,0,1,.5-1.19,11.67,11.67,0,0,1,9.39.21L36.73,54a.94.94,0,0,1,.45,1.21A.87.87,0,0,1,36.39,55.78Z"/><path class="cls-2" d="M53.94,34.19a1.27,1.27,0,0,1,.74-.23,1.54,1.54,0,0,1,0,3.08,1.45,1.45,0,0,1-1.39-1.15"/><path class="cls-2" d="M36.12,53.75a1.26,1.26,0,0,1,.55-.12,1.55,1.55,0,0,1,0,3.09,1.46,1.46,0,0,1-1.42-1.38"/><path class="cls-2" d="M40.79,50.9H41a1.54,1.54,0,1,1-1.45,1.54.25.25,0,0,1,0-.09"/><path class="cls-2" d="M44.84,47a1.33,1.33,0,0,1,.49-.09,1.54,1.54,0,0,1,0,3.08,1.48,1.48,0,0,1-1.44-1.43"/><path class="cls-2" d="M48.24,43.4a1.63,1.63,0,0,1,.31,0,1.54,1.54,0,1,1-1.44,1.54v0"/><path class="cls-2" d="M51.5,38.85a1.53,1.53,0,0,1,.3,0,1.55,1.55,0,1,1-1.45,1.55v0"/><path class="cls-1" d="M35.9,64.57h0s0,0,0,0c-.6,0-1.21,0-1.81,0a38.82,38.82,0,0,1-7.43-.73l-2.68-.52"/><path class="cls-1" d="M54.37,24.11l3.14,3.76a19.17,19.17,0,0,1,2.67,4.56"/><path class="cls-1" d="M59.44,52.11s0,0,0,0c-.24.44-.49.85-.75,1.27a1,1,0,0,1-.09.13"/><path class="cls-1" d="M57.38,55.23a19.47,19.47,0,0,1-2.31,2.49,17.9,17.9,0,0,1-1.78,1.48l0,0h0a0,0,0,0,0,0,0"/><line class="cls-1" x1="45.74" x2="45.73" y1="62.81" y2="62.81"/></svg>